{
  "materials": [
    {
      "name": "AM171_054_02_fromVray_alpha",
      "pbrMetallicRoughness": {
        "baseColorTexture": {
          "index": 0,
          "texCoord": 0
        },
        "baseColorFactor": [
          1.0,
          1.0,
          1.0,
          1.0
        ],
        "metallicFactor": 0,
        "roughnessFactor": 1
      },
      "alphaMode": "MASK",
      "alphaCutoff": 0.5
    },
    {
      "name": "AM171_054_01_fromVray_alpha",
      "pbrMetallicRoughness": {
        "baseColorTexture": {
          "index": 1,
          "texCoord": 0
        },
        "baseColorFactor": [
          1.0,
          1.0,
          1.0,
          1.0
        ],
        "metallicFactor": 0,
        "roughnessFactor": 1
      },
      "alphaMode": "BLEND"
    },
    {
      "name": "08_-_Default_alpha",
      "pbrMetallicRoughness": {
        "baseColorFactor": [
          0.5882353,
          0.5882353,
          0.5882353,
          0.0
        ],
        "metallicFactor": 0.099999994,
        "roughnessFactor": 1
      },
      "alphaMode": "BLEND"
    }
  ],
  "images": [
    {
      "uri": "4B5ECAD4306EA46D240F4DDC5DD4B3E4.png"
    },
    {
      "uri": "5C612E97A09CCDE9CA455CB79B77F52E.jpg"
    }
  ],
  "textures": [
    {
      "name": "AM171_054_leaf_color.png",
      "sampler": 0,
      "source": 0
    },
    {
      "name": "AM171_054_leaf_trunk_color.jpg",
      "sampler": 0,
      "source": 1
    }
  ],
  "meshes": [
    {
      "name": "AM171_054",
      "primitives": [
        {
          "material": 0,
          "mode": 4,
          "indices": 0,
          "attributes": {
            "COLOR_0": 3,
            "NORMAL": 2,
            "POSITION": 1,
            "TEXCOORD_0": 4,
            "TEXCOORD_1": 5
          }
        }
      ]
    },
    {
      "name": "AM171_054_sub_1",
      "primitives": [
        {
          "material": 0,
          "mode": 4,
          "indices": 6,
          "attributes": {
            "COLOR_0": 9,
            "NORMAL": 8,
            "POSITION": 7,
            "TEXCOORD_0": 10,
            "TEXCOORD_1": 11
          }
        },
        {
          "material": 1,
          "mode": 4,
          "indices": 18,
          "attributes": {
            "NORMAL": 20,
            "POSITION": 19,
            "TEXCOORD_0": 21,
            "TEXCOORD_1": 22
          }
        }
      ]
    },
    {
      "name": "Object001",
      "primitives": [
        {
          "material": 0,
          "mode": 4,
          "indices": 12,
          "attributes": {
            "COLOR_0": 15,
            "NORMAL": 14,
            "POSITION": 13,
            "TEXCOORD_0": 16,
            "TEXCOORD_1": 17
          }
        }
      ]
    },
    {
      "name": "Box001",
      "primitives": [
        {
          "material": 2,
          "mode": 4,
          "indices": 23,
          "attributes": {
            "NORMAL": 25,
            "POSITION": 24,
            "TEXCOORD_0": 26,
            "TEXCOORD_1": 27
          }
        }
      ]
    }
  ],
  "buffers": [
    {
      "byteLength": 7145172,
      "uri": "6225D8EBCF4CEFF24BF07107B3209184.bin"
    }
  ],
  "bufferViews": [
    {
      "buffer": 0,
      "target": 34963,
      "byteLength": 99936,
      "byteOffset": 0
    },
    {
      "buffer": 0,
      "target": 34962,
      "byteLength": 175392,
      "byteOffset": 99936
    },
    {
      "buffer": 0,
      "target": 34962,
      "byteLength": 175392,
      "byteOffset": 275328
    },
    {
      "buffer": 0,
      "target": 34962,
      "byteLength": 233856,
      "byteOffset": 450720
    },
    {
      "buffer": 0,
      "target": 34962,
      "byteLength": 116928,
      "byteOffset": 684576
    },
    {
      "buffer": 0,
      "target": 34962,
      "byteLength": 116928,
      "byteOffset": 801504
    },
    {
      "buffer": 0,
      "target": 34963,
      "byteLength": 236376,
      "byteOffset": 918432
    },
    {
      "buffer": 0,
      "target": 34962,
      "byteLength": 415080,
      "byteOffset": 1154808
    },
    {
      "buffer": 0,
      "target": 34962,
      "byteLength": 415080,
      "byteOffset": 1569888
    },
    {
      "buffer": 0,
      "target": 34962,
      "byteLength": 553440,
      "byteOffset": 1984968
    },
    {
      "buffer": 0,
      "target": 34962,
      "byteLength": 276720,
      "byteOffset": 2538408
    },
    {
      "buffer": 0,
      "target": 34962,
      "byteLength": 276720,
      "byteOffset": 2815128
    },
    {
      "buffer": 0,
      "target": 34963,
      "byteLength": 336312,
      "byteOffset": 3091848
    },
    {
      "buffer": 0,
      "target": 34962,
      "byteLength": 590472,
      "byteOffset": 3428160
    },
    {
      "buffer": 0,
      "target": 34962,
      "byteLength": 590472,
      "byteOffset": 4018632
    },
    {
      "buffer": 0,
      "target": 34962,
      "byteLength": 787296,
      "byteOffset": 4609104
    },
    {
      "buffer": 0,
      "target": 34962,
      "byteLength": 393648,
      "byteOffset": 5396400
    },
    {
      "buffer": 0,
      "target": 34962,
      "byteLength": 393648,
      "byteOffset": 5790048
    },
    {
      "buffer": 0,
      "target": 34963,
      "byteLength": 149802,
      "byteOffset": 6183696
    },
    {
      "buffer": 0,
      "target": 34962,
      "byteLength": 243192,
      "byteOffset": 6333500
    },
    {
      "buffer": 0,
      "target": 34962,
      "byteLength": 243192,
      "byteOffset": 6576692
    },
    {
      "buffer": 0,
      "target": 34962,
      "byteLength": 162128,
      "byteOffset": 6819884
    },
    {
      "buffer": 0,
      "target": 34962,
      "byteLength": 162128,
      "byteOffset": 6982012
    },
    {
      "buffer": 0,
      "target": 34963,
      "byteLength": 72,
      "byteOffset": 7144140
    },
    {
      "buffer": 0,
      "target": 34962,
      "byteLength": 288,
      "byteOffset": 7144212
    },
    {
      "buffer": 0,
      "target": 34962,
      "byteLength": 288,
      "byteOffset": 7144500
    },
    {
      "buffer": 0,
      "target": 34962,
      "byteLength": 192,
      "byteOffset": 7144788
    },
    {
      "buffer": 0,
      "target": 34962,
      "byteLength": 192,
      "byteOffset": 7144980
    }
  ],
  "accessors": [
    {
      "componentType": 5123,
      "type": "SCALAR",
      "bufferView": 0,
      "byteOffset": 0,
      "count": 49968
    },
    {
      "componentType": 5126,
      "type": "VEC3",
      "bufferView": 1,
      "byteOffset": 0,
      "count": 14616,
      "min": [
        -2.70707941055298,
        -3.30576539039612,
        7.23697900772095
      ],
      "max": [
        3.21063160896301,
        2.2074453830719,
        11.1680250167847
      ]
    },
    {
      "componentType": 5126,
      "type": "VEC3",
      "bufferView": 2,
      "byteOffset": 0,
      "count": 14616
    },
    {
      "componentType": 5126,
      "type": "VEC4",
      "bufferView": 3,
      "byteOffset": 0,
      "count": 14616
    },
    {
      "componentType": 5126,
      "type": "VEC2",
      "bufferView": 4,
      "byteOffset": 0,
      "count": 14616
    },
    {
      "componentType": 5126,
      "type": "VEC2",
      "bufferView": 5,
      "byteOffset": 0,
      "count": 14616
    },
    {
      "componentType": 5123,
      "type": "SCALAR",
      "bufferView": 6,
      "byteOffset": 0,
      "count": 118188
    },
    {
      "componentType": 5126,
      "type": "VEC3",
      "bufferView": 7,
      "byteOffset": 0,
      "count": 34590,
      "min": [
        -2.88075518608093,
        -3.84106159210205,
        1.90139770507813
      ],
      "max": [
        3.42533397674561,
        2.66030097007751,
        8.84540176391602
      ]
    },
    {
      "componentType": 5126,
      "type": "VEC3",
      "bufferView": 8,
      "byteOffset": 0,
      "count": 34590
    },
    {
      "componentType": 5126,
      "type": "VEC4",
      "bufferView": 9,
      "byteOffset": 0,
      "count": 34590
    },
    {
      "componentType": 5126,
      "type": "VEC2",
      "bufferView": 10,
      "byteOffset": 0,
      "count": 34590
    },
    {
      "componentType": 5126,
      "type": "VEC2",
      "bufferView": 11,
      "byteOffset": 0,
      "count": 34590
    },
    {
      "componentType": 5123,
      "type": "SCALAR",
      "bufferView": 12,
      "byteOffset": 0,
      "count": 168156
    },
    {
      "componentType": 5126,
      "type": "VEC3",
      "bufferView": 13,
      "byteOffset": 0,
      "count": 49206,
      "min": [
        -2.88075494766235,
        -3.84106159210205,
        1.89562749862671
      ],
      "max": [
        3.42533373832703,
        2.66030097007751,
        11.1622533798218
      ]
    },
    {
      "componentType": 5126,
      "type": "VEC3",
      "bufferView": 14,
      "byteOffset": 0,
      "count": 49206
    },
    {
      "componentType": 5126,
      "type": "VEC4",
      "bufferView": 15,
      "byteOffset": 0,
      "count": 49206
    },
    {
      "componentType": 5126,
      "type": "VEC2",
      "bufferView": 16,
      "byteOffset": 0,
      "count": 49206
    },
    {
      "componentType": 5126,
      "type": "VEC2",
      "bufferView": 17,
      "byteOffset": 0,
      "count": 49206
    },
    {
      "componentType": 5123,
      "type": "SCALAR",
      "bufferView": 18,
      "byteOffset": 0,
      "count": 74901
    },
    {
      "componentType": 5126,
      "type": "VEC3",
      "bufferView": 19,
      "byteOffset": 0,
      "count": 20266,
      "min": [
        -2.50905847549438,
        -3.48569989204407,
        -0.0389246940612793
      ],
      "max": [
        3.09590578079224,
        2.38608431816101,
        10.936900138855
      ]
    },
    {
      "componentType": 5126,
      "type": "VEC3",
      "bufferView": 20,
      "byteOffset": 0,
      "count": 20266
    },
    {
      "componentType": 5126,
      "type": "VEC2",
      "bufferView": 21,
      "byteOffset": 0,
      "count": 20266
    },
    {
      "componentType": 5126,
      "type": "VEC2",
      "bufferView": 22,
      "byteOffset": 0,
      "count": 20266
    },
    {
      "componentType": 5123,
      "type": "SCALAR",
      "bufferView": 23,
      "byteOffset": 0,
      "count": 36
    },
    {
      "componentType": 5126,
      "type": "VEC3",
      "bufferView": 24,
      "byteOffset": 0,
      "count": 24,
      "min": [
        -0.385570347309113,
        -0.612549364566803,
        0.0
      ],
      "max": [
        0.573704898357391,
        0.0216041505336761,
        5.108069896698
      ]
    },
    {
      "componentType": 5126,
      "type": "VEC3",
      "bufferView": 25,
      "byteOffset": 0,
      "count": 24
    },
    {
      "componentType": 5126,
      "type": "VEC2",
      "bufferView": 26,
      "byteOffset": 0,
      "count": 24
    },
    {
      "componentType": 5126,
      "type": "VEC2",
      "bufferView": 27,
      "byteOffset": 0,
      "count": 24
    }
  ],
  "nodes": [
    {
      "name": "RootNode",
      "translation": [
        0.0,
        0.0,
        0.0
      ],
      "rotation": [
        0.0,
        0.0,
        0.0,
        1.0
      ],
      "scale": [
        1.0,
        1.0,
        1.0
      ],
      "children": [
        1,
        3,
        4
      ]
    },
    {
      "name": "AM171_054",
      "translation": [
        0.0,
        0.00899598002433777,
        0.0
      ],
      "rotation": [
        -0.688067257404327,
        0.162983044981956,
        0.162983044981956,
        0.688067257404327
      ],
      "scale": [
        0.901676177978516,
        0.901676177978516,
        0.901675999164581
      ],
      "children": [
        2
      ],
      "mesh": 0
    },
    {
      "name": "AM171_054_sub_1",
      "translation": [
        0.0,
        0.0,
        1.86264514923096E-09
      ],
      "rotation": [
        -3.08148827836156E-33,
        3.08148754367759E-33,
        1.19209303761636E-07,
        1.0
      ],
      "scale": [
        1.0,
        1.0,
        0.999999940395355
      ],
      "mesh": 1
    },
    {
      "name": "Object001",
      "translation": [
        0.0,
        0.00899598002433777,
        0.0
      ],
      "rotation": [
        -0.688067257404327,
        0.162983044981956,
        0.162983044981956,
        0.688067257404327
      ],
      "scale": [
        0.901676177978516,
        0.901676177978516,
        0.901675999164581
      ],
      "mesh": 2
    },
    {
      "name": "Box001",
      "translation": [
        0.0581039935350418,
        0.0,
        -0.240264356136322
      ],
      "rotation": [
        -0.70710676908493,
        0.0,
        0.0,
        0.70710676908493
      ],
      "scale": [
        1.0,
        1.0,
        1.0
      ]
    }
  ],
  "asset": {
    "generator": "FBX2glTF",
    "version": "2.0"
  },
  "scene": 0,
  "scenes": [
    {
      "name": "Root Scene",
      "nodes": [
        0
      ]
    }
  ],
  "samplers": [
    {}
  ]
}
