<?xml version="1.0" encoding="UTF-8"?>
<svg id="Livello_1" data-name="Livello 1" xmlns="http://www.w3.org/2000/svg" viewBox="0 0 273.2 284.54">
  <defs>
    <style>
      .cls-1 {
        fill: #00a0ff;
      }

      .cls-1, .cls-2 {
        stroke-width: 0px;
      }

      .cls-2 {
        fill: #000d29;
      }
    </style>
  </defs>
  <path class="cls-2" d="M136.59,6.78c71.69,0,129.81,58.12,129.81,129.81v11.81c0,71.69-58.12,129.81-129.81,129.81-71.69,0-129.81-58.12-129.81-129.81v-11.79C6.76,64.91,64.87,6.78,136.56,6.77c0,0,.01,0,.02,0h.01Z"/>
  <path class="cls-1" d="M153.02.98c3.72.45,6.38,3.83,5.93,7.55-.45,3.72-3.83,6.38-7.55,5.93-4.91-.59-9.86-.89-14.81-.9-3.74,0-6.78-3.03-6.78-6.78C129.81,3.04,132.84,0,136.59,0h0C142.11,0,147.58.33,153.02.98ZM192.64,12c3.41,1.54,4.93,5.56,3.39,8.97-1.54,3.41-5.56,4.93-8.97,3.39-4.5-2.03-9.13-3.78-13.85-5.25-3.58-1.11-5.58-4.92-4.46-8.5,1.11-3.58,4.92-5.58,8.5-4.46,5.25,1.65,10.38,3.6,15.39,5.85ZM227.9,35.01c2.7,2.59,2.8,6.88.21,9.59-2.47,2.58-6.53,2.8-9.27.49-3.68-3.3-7.55-6.38-11.59-9.23-3.07-2.15-3.8-6.38-1.65-9.45,2.15-3.07,6.38-3.8,9.45-1.65h0c4.5,3.15,8.79,6.57,12.87,10.25h-.02ZM253.82,66.44c1.93,3.21.88,7.38-2.33,9.31-3.21,1.93-7.38.88-9.31-2.33h0c-2.54-4.24-5.34-8.32-8.37-12.22-2.3-2.96-1.76-7.23,1.2-9.53,2.96-2.3,7.23-1.76,9.53,1.2h0c3.36,4.35,6.45,8.87,9.29,13.57h0ZM269.72,105.84c.84,3.65-1.44,7.3-5.09,8.14s-7.3-1.44-8.14-5.09c-1.11-4.82-2.51-9.56-4.2-14.2-1.28-3.52.55-7.42,4.07-8.69s7.42.55,8.69,4.07c1.88,5.14,3.43,10.42,4.65,15.78h.01ZM273.2,145.04c0,3.75-3.04,6.79-6.79,6.79-3.75,0-6.79-3.04-6.79-6.79h0v-8.56c0-2.28-.06-4.56-.19-6.82-.21-3.74,2.66-6.94,6.4-7.15s6.94,2.66,7.15,6.4h0c.15,2.51.23,5.03.23,7.57v8.56ZM268.08,185.55c-1.02,3.61-4.77,5.71-8.38,4.69s-5.71-4.77-4.69-8.38c1.35-4.74,2.4-9.57,3.15-14.48.58-3.7,4.04-6.24,7.75-5.66s6.24,4.04,5.66,7.75c-.84,5.44-2.01,10.8-3.5,16.08ZM250.83,223.31c-2.05,3.13-6.26,4-9.39,1.95s-4-6.26-1.95-9.39h0c2.72-4.14,5.18-8.43,7.38-12.86,1.67-3.36,5.73-4.73,9.09-3.06,3.36,1.67,4.73,5.73,3.06,9.09h0c-2.44,4.92-5.18,9.68-8.19,14.27h0ZM223.44,253.85c-2.89,2.39-7.17,1.98-9.55-.92-2.39-2.89-1.98-7.17.91-9.55h0c3.83-3.15,7.44-6.52,10.86-10.09,2.55-2.74,6.84-2.89,9.58-.34s2.89,6.84.34,9.58c-.04.04-.08.08-.12.12-3.78,3.97-7.8,7.71-12.03,11.2ZM187.24,275.3c-3.48,1.39-7.43-.3-8.82-3.78s.3-7.43,3.78-8.82h0c4.59-1.83,9.06-3.94,13.4-6.3,3.28-1.8,7.41-.6,9.21,2.69,1.8,3.28.6,7.41-2.68,9.21h0c-4.81,2.63-9.78,4.98-14.88,7.01ZM148.16,284.52c-3.74.31-7.02-2.46-7.34-6.19-.31-3.74,2.46-7.02,6.2-7.34,4.95-.4,9.84-1.13,14.67-2.11,3.67-.76,7.26,1.6,8.02,5.27.76,3.67-1.6,7.26-5.27,8.02-5.35,1.11-10.8,1.89-16.28,2.35h0ZM106.82,281.75c-3.66-.81-5.96-4.43-5.15-8.09.81-3.66,4.43-5.96,8.09-5.15,4.8,1.06,9.69,1.85,14.63,2.32,3.73.36,6.45,3.68,6.09,7.41-.36,3.73-3.68,6.45-7.41,6.09h0c-5.46-.53-10.89-1.39-16.24-2.58ZM68.29,266.72c-3.25-1.88-4.36-6.03-2.48-9.28,1.88-3.25,6.03-4.36,9.28-2.48,4.28,2.47,8.7,4.69,13.24,6.63,3.45,1.47,5.06,5.46,3.58,8.91-1.47,3.45-5.46,5.06-8.91,3.59h0c-5.05-2.16-9.96-4.62-14.72-7.37h0ZM36.2,241.02c-2.54-2.75-2.36-7.05.39-9.58,2.75-2.54,7.05-2.36,9.59.39,3.36,3.63,6.93,7.05,10.69,10.26,2.86,2.43,3.2,6.72.77,9.58s-6.72,3.2-9.58.77c-4.17-3.56-8.13-7.37-11.85-11.4l-.02-.02ZM12.8,206.22c-1.59-3.4-.12-7.44,3.28-9.02,3.4-1.59,7.44-.12,9.02,3.28,2.1,4.47,4.47,8.82,7.08,13,1.99,3.18,1.02,7.36-2.15,9.35-3.18,1.99-7.36,1.02-9.35-2.15-2.91-4.66-5.53-9.49-7.86-14.46h-.02ZM1.34,167.58c-.52-3.71,2.06-7.14,5.78-7.67,3.71-.52,7.14,2.06,7.66,5.78.69,4.9,1.66,9.75,2.94,14.5.97,3.62-1.18,7.34-4.8,8.31-3.62.97-7.34-1.18-8.31-4.8h0c-1.41-5.3-2.51-10.69-3.27-16.12ZM.36,126.57c.27-3.74,3.52-6.54,7.26-6.27,3.74.27,6.54,3.52,6.27,7.26h0c-.21,3-.33,6-.33,9.03v6.11c0,3.74-3.03,6.78-6.78,6.78-3.74,0-6.78-3.03-6.78-6.78h0v-6.11c0-3.36.12-6.69.36-10.02ZM9.45,86.52c1.38-3.49,5.32-5.2,8.81-3.82,3.49,1.38,5.2,5.32,3.82,8.81h0c-1.8,4.59-3.33,9.3-4.57,14.1-.94,3.63-4.65,5.8-8.28,4.86-3.63-.94-5.8-4.65-4.86-8.28h0c1.38-5.31,3.08-10.54,5.1-15.65h-.02ZM30.63,50.37c2.37-2.9,6.64-3.34,9.55-.97s3.34,6.64.97,9.55h0c-3.12,3.82-6,7.85-8.66,12.03-1.95,3.2-6.12,4.21-9.32,2.26-3.2-1.95-4.21-6.12-2.26-9.32.04-.06.08-.13.12-.19,2.93-4.65,6.14-9.1,9.6-13.35v-.02ZM60.87,22.89c3.11-2.08,7.33-1.24,9.4,1.88,2.08,3.11,1.24,7.33-1.87,9.4-4.12,2.75-8.06,5.74-11.82,8.96-2.85,2.44-7.13,2.1-9.56-.74s-2.1-7.13.74-9.56h0c4.16-3.57,8.55-6.9,13.11-9.93ZM99.32,5.16c3.6-1.02,7.35,1.08,8.37,4.68,1.02,3.6-1.08,7.35-4.68,8.37-4.76,1.35-9.44,2.98-13.98,4.89-3.45,1.45-7.43-.18-8.88-3.63-1.45-3.45.18-7.43,3.63-8.88,5.07-2.12,10.25-3.94,15.54-5.43ZM136.34,0c3.75,0,6.79,3.02,6.8,6.77,0,3.75-3.02,6.79-6.77,6.8-4.21,0-8.41.23-12.6.66-3.73.39-7.07-2.32-7.46-6.04-.39-3.73,2.32-7.07,6.05-7.46C126.99.26,131.66.02,136.34,0Z"/>
  <path class="cls-1" d="M155.2,191.08c3.25,3.79,5.02,8.35,5.02,13.16,0,12.3-11.64,22.27-26,22.27s-26-9.97-26-22.27c0-4.58,1.61-8.93,4.57-12.61l-12.23-7.22c-4.66,5.79-7.2,12.66-7.2,19.84,0,19.33,18.29,35,40.85,35s40.85-15.67,40.85-35c0-7.54-2.8-14.73-7.9-20.68l-11.98,7.53h0Z"/>
  <path class="cls-1" d="M158.45,195.86c2.04,3.05,6.58,4.1,10.14,2.35s4.79-5.64,2.75-8.68l-25.13-37.53c-5.9-8.82-18.07-8.82-23.97,0l-25.13,37.53c-2.04,3.05-.81,6.94,2.75,8.68s8.1.69,10.14-2.35l24.23-36.19,24.23,36.19h0Z"/>
  <path class="cls-1" d="M186.24,137.99c8.13,9.5,12.57,20.95,12.57,32.99,0,30.83-29.14,55.82-65.09,55.82s-65.09-24.99-65.09-55.82c0-11.47,4.03-22.4,11.45-31.64l-12.24-7.22c-9.12,11.34-14.08,24.79-14.08,38.85,0,37.86,35.79,68.55,79.95,68.55s79.94-30.69,79.94-68.55c0-14.77-5.47-28.85-15.45-40.51l-11.98,7.52h0Z"/>
  <path class="cls-1" d="M193.82,149.06c2.04,3.05,6.58,4.11,10.14,2.36s4.79-5.63,2.75-8.68l-61-91.22c-5.9-8.82-18.06-8.82-23.97,0l-61,91.22c-2.04,3.05-.81,6.94,2.75,8.68s8.1.69,10.14-2.36l60.09-89.86,60.09,89.86h0Z"/>
</svg>