<?xml version="1.0" encoding="UTF-8"?>
<!-- Generator: visioncortex VTracer 0.6.3 -->
<svg version="1.1" xmlns="http://www.w3.org/2000/svg" width="980" height="838">
<path d="M0 0 C0.86 0.8 1.71 1.61 2.6 2.43 C37.81 36.42 59.18 87.46 60.2 136.17 C60.23 138.84 60.25 141.51 60.25 144.19 C60.25 145.24 60.25 145.24 60.25 146.32 C60.17 202.17 37.29 252.71 -2 292 C-0.92 292.61 0.15 293.21 1.26 293.84 C15.66 302.05 28.05 311.52 40 323 C40.56 323.54 41.12 324.07 41.7 324.63 C45.81 328.64 49.44 332.83 52.88 337.44 C53.39 338.13 53.9 338.81 54.43 339.52 C59.64 346.65 63.98 354.15 68 362 C68.55 363.08 69.11 364.15 69.68 365.26 C76.25 378.8 80.65 393.16 83 408 C83.18 409.14 83.37 410.29 83.56 411.47 C85.66 429.04 85.32 448.84 81 466 C80.69 467.24 80.69 467.24 80.38 468.52 C70.26 508.78 45.72 543.47 10.18 565.38 C-18.97 582.77 -49.9 588.51 -83.51 588.38 C-85.57 588.38 -87.62 588.39 -89.68 588.4 C-95.26 588.41 -100.84 588.4 -106.42 588.39 C-112.47 588.39 -118.51 588.4 -124.56 588.4 C-135.69 588.42 -146.83 588.42 -157.96 588.41 C-168.25 588.4 -178.54 588.4 -188.83 588.4 C-189.86 588.4 -189.86 588.4 -190.91 588.4 C-193.69 588.4 -196.48 588.4 -199.26 588.41 C-225.31 588.41 -251.36 588.41 -277.41 588.39 C-300.5 588.38 -323.59 588.38 -346.68 588.39 C-372.69 588.41 -398.69 588.41 -424.7 588.4 C-427.48 588.4 -430.25 588.4 -433.03 588.4 C-433.72 588.4 -434.4 588.4 -435.1 588.4 C-445.38 588.4 -455.66 588.4 -465.94 588.41 C-477.64 588.42 -489.34 588.41 -501.04 588.4 C-507 588.39 -512.96 588.39 -518.92 588.4 C-575.53 588.48 -628.01 581.62 -671 541 C-672.33 539.87 -673.66 538.75 -675 537.62 C-702.53 513.39 -720.64 476.75 -727 441 C-727.18 439.98 -727.37 438.97 -727.55 437.92 C-729.14 428.14 -729.4 418.51 -729.38 408.62 C-729.37 407.79 -729.37 406.96 -729.37 406.1 C-729.31 385.15 -726.26 365.7 -719 346 C-718.74 345.28 -718.48 344.57 -718.21 343.83 C-711.53 325.84 -702.05 309.9 -690 295 C-689.5 294.38 -689 293.76 -688.49 293.12 C-673.77 274.99 -655.67 259.97 -635 249 C-634.34 249 -633.68 249 -633 249 C-632.97 248.04 -632.95 247.08 -632.92 246.09 C-630.5 181.22 -597.8 120.75 -551 77 C-547.43 73.86 -543.76 70.9 -540 68 C-538.57 66.84 -538.57 66.84 -537.1 65.66 C-486.78 25.6 -420.77 7.51 -356.99 13.94 C-340.46 15.86 -323.96 19.29 -308 24 C-307.33 23.2 -306.67 22.4 -305.98 21.58 C-268.4 -23.3 -220.49 -52.91 -161.19 -58.38 C-100.3 -63.01 -44.04 -41.62 0 0 Z " fill="#C2C2C2" transform="translate(729,250)"/>
<path d="M0 0 C0.86 0.8 1.71 1.61 2.6 2.43 C37.81 36.42 59.18 87.46 60.2 136.17 C60.23 138.84 60.25 141.51 60.25 144.19 C60.25 145.24 60.25 145.24 60.25 146.32 C60.17 202.17 37.29 252.71 -2 292 C-0.92 292.61 0.15 293.21 1.26 293.84 C15.66 302.05 28.05 311.52 40 323 C40.56 323.54 41.12 324.07 41.7 324.63 C45.81 328.64 49.44 332.83 52.88 337.44 C53.39 338.13 53.9 338.81 54.43 339.52 C59.64 346.65 63.98 354.15 68 362 C68.55 363.08 69.11 364.15 69.68 365.26 C76.25 378.8 80.65 393.16 83 408 C83.18 409.14 83.37 410.29 83.56 411.47 C85.66 429.04 85.32 448.84 81 466 C80.69 467.24 80.69 467.24 80.38 468.52 C70.26 508.78 45.72 543.47 10.18 565.38 C-18.97 582.77 -49.9 588.51 -83.51 588.38 C-85.57 588.38 -87.62 588.39 -89.68 588.4 C-95.26 588.41 -100.84 588.4 -106.42 588.39 C-112.47 588.39 -118.51 588.4 -124.56 588.4 C-135.69 588.42 -146.83 588.42 -157.96 588.41 C-168.25 588.4 -178.54 588.4 -188.83 588.4 C-189.86 588.4 -189.86 588.4 -190.91 588.4 C-193.69 588.4 -196.48 588.4 -199.26 588.41 C-225.31 588.41 -251.36 588.41 -277.41 588.39 C-300.5 588.38 -323.59 588.38 -346.68 588.39 C-372.69 588.41 -398.69 588.41 -424.7 588.4 C-427.48 588.4 -430.25 588.4 -433.03 588.4 C-433.72 588.4 -434.4 588.4 -435.1 588.4 C-445.38 588.4 -455.66 588.4 -465.94 588.41 C-477.64 588.42 -489.34 588.41 -501.04 588.4 C-507 588.39 -512.96 588.39 -518.92 588.4 C-575.53 588.48 -628.01 581.62 -671 541 C-672.33 539.87 -673.66 538.75 -675 537.62 C-702.53 513.39 -720.64 476.75 -727 441 C-727.18 439.98 -727.37 438.97 -727.55 437.92 C-729.14 428.14 -729.4 418.51 -729.38 408.62 C-729.37 407.79 -729.37 406.96 -729.37 406.1 C-729.31 385.15 -726.26 365.7 -719 346 C-718.74 345.28 -718.48 344.57 -718.21 343.83 C-711.53 325.84 -702.05 309.9 -690 295 C-689.5 294.38 -689 293.76 -688.49 293.12 C-673.77 274.99 -655.67 259.97 -635 249 C-634.34 249 -633.68 249 -633 249 C-632.97 248.04 -632.95 247.08 -632.92 246.09 C-630.5 181.22 -597.8 120.75 -551 77 C-547.43 73.86 -543.76 70.9 -540 68 C-538.57 66.84 -538.57 66.84 -537.1 65.66 C-486.78 25.6 -420.77 7.51 -356.99 13.94 C-340.46 15.86 -323.96 19.29 -308 24 C-307.33 23.2 -306.67 22.4 -305.98 21.58 C-268.4 -23.3 -220.49 -52.91 -161.19 -58.38 C-100.3 -63.01 -44.04 -41.62 0 0 Z M-509 138 C-509.81 138.81 -510.62 139.61 -511.45 140.45 C-523.6 152.61 -532.85 165.9 -541 181 C-541.33 181.61 -541.67 182.21 -542.01 182.84 C-554.81 206.26 -559.85 231.63 -562 258 C-562.09 259.02 -562.09 259.02 -562.18 260.06 C-563.11 271.37 -563.1 282.65 -563 294 C-563.77 294.22 -564.54 294.44 -565.33 294.66 C-570.35 296.49 -574.97 298.95 -579.69 301.44 C-580.7 301.97 -581.71 302.5 -582.75 303.05 C-602.95 313.41 -602.95 313.41 -621 327 C-621.5 327.45 -621.99 327.9 -622.5 328.36 C-641.12 345.41 -655.82 370.34 -657.16 396.11 C-657.74 416.79 -657.74 416.79 -654 437 C-653.81 437.63 -653.61 438.25 -653.41 438.9 C-648.54 454.19 -640.87 468.15 -630 480 C-629.35 480.73 -629.35 480.73 -628.68 481.47 C-609.71 502.31 -582.9 514.71 -554.75 516.11 C-548.73 516.3 -542.71 516.27 -536.69 516.25 C-534.66 516.26 -532.64 516.26 -530.62 516.26 C-525.09 516.27 -519.56 516.27 -514.04 516.26 C-508.06 516.26 -502.09 516.26 -496.12 516.27 C-485.1 516.28 -474.09 516.28 -463.08 516.27 C-452.9 516.27 -442.73 516.27 -432.55 516.27 C-431.88 516.27 -431.2 516.27 -430.5 516.27 C-427.76 516.27 -425.01 516.27 -422.27 516.27 C-396.54 516.28 -370.81 516.27 -345.09 516.26 C-322.25 516.25 -299.42 516.25 -276.58 516.26 C-250.9 516.27 -225.22 516.28 -199.53 516.27 C-196.79 516.27 -194.05 516.27 -191.31 516.27 C-190.64 516.27 -189.96 516.27 -189.27 516.27 C-179.1 516.26 -168.93 516.27 -158.77 516.27 C-147.2 516.28 -135.64 516.28 -124.07 516.27 C-118.18 516.26 -112.28 516.26 -106.38 516.27 C-100.98 516.27 -95.57 516.27 -90.17 516.26 C-88.22 516.26 -86.27 516.26 -84.32 516.26 C-55.8 516.33 -32.07 510.36 -10.81 490.12 C6.03 472.67 12.65 450.03 12.27 426.27 C11.45 404.13 0.18 383.86 -15.75 368.87 C-27.84 357.97 -42.72 352.53 -57.59 346.41 C-60.72 345.12 -63.82 343.8 -66.93 342.46 C-67.81 342.08 -68.68 341.7 -69.59 341.31 C-71.19 340.62 -72.8 339.93 -74.4 339.23 C-77.43 337.95 -79.68 337 -83 337 C-83 336.34 -82.99 335.69 -82.99 335.01 C-82.94 328.12 -82.91 321.22 -82.89 314.33 C-82.88 311.76 -82.87 309.2 -82.85 306.63 C-82.6 269.27 -88.83 239.86 -115 212 C-115.53 211.4 -116.05 210.79 -116.6 210.17 C-130.04 195.46 -150.05 187.42 -169 183 C-169.74 182.82 -170.47 182.63 -171.23 182.44 C-178.9 180.67 -186.59 180.59 -194.44 180.44 C-198.42 180.35 -202.4 180.25 -206.38 180.11 C-208.64 180.04 -210.9 180.01 -213.17 180.03 C-217.07 179.95 -219.86 179.85 -223.05 177.47 C-224.97 175.41 -226.61 173.29 -228.25 171 C-228.85 170.22 -229.45 169.44 -230.06 168.63 C-231.74 166.44 -233.37 164.23 -235 162 C-236.2 160.43 -237.41 158.87 -238.62 157.31 C-239.13 156.65 -239.64 155.99 -240.17 155.3 C-250.87 141.84 -262.26 130.34 -276 120 C-276.98 119.25 -277.97 118.49 -278.98 117.72 C-301.46 101.3 -327.69 91.59 -355 87 C-356.29 86.78 -357.59 86.55 -358.92 86.32 C-413.12 78.25 -471.33 98.3 -509 138 Z " fill="#020202" transform="translate(729,250)"/>
<path d="M0 0 C0.69 -0 1.39 -0 2.1 -0 C12.74 0.01 22.78 0.54 33.12 3.25 C33.76 3.41 34.4 3.57 35.06 3.74 C68.71 12.42 97.36 34.59 115.12 64.25 C121.78 75.68 126.89 87 129.81 99.94 C130.02 100.84 130.24 101.73 130.46 102.66 C134.39 119.6 135.29 139.26 131.12 156.25 C130.95 156.99 130.77 157.74 130.59 158.51 C127.31 171.92 122.43 183.99 116.12 196.25 C115.47 196.25 114.81 196.25 114.12 196.25 C113.81 195.56 113.49 194.87 113.16 194.15 C105.13 177.31 93.79 162.86 81.12 149.25 C80.47 148.53 79.82 147.82 79.15 147.08 C53.08 119.55 9.93 98.48 -28.07 97.17 C-28.73 97.18 -29.39 97.18 -30.07 97.18 C-38.67 97.2 -38.67 97.2 -42.7 94.03 C-45.29 91.22 -47.6 88.32 -49.88 85.25 C-50.98 83.92 -52.11 82.61 -53.25 81.31 C-54.07 80.37 -54.07 80.37 -54.91 79.41 C-65.12 68.19 -76.47 58.74 -88.55 49.61 C-91.16 47.63 -93.64 45.66 -95.88 43.25 C-70.21 16.2 -37.59 0.03 0 0 Z " fill="#FEF103" transform="translate(583.875,263.75)"/>
<path d="M0 0 C7.28 5.98 12.27 13.4 14.1 22.73 C14.21 25.4 14.26 28.06 14.26 30.73 C14.27 31.54 14.27 32.34 14.28 33.17 C14.29 35.83 14.3 38.48 14.3 41.14 C14.31 42.99 14.32 44.85 14.32 46.7 C14.33 50.59 14.34 54.48 14.34 58.37 C14.35 63.33 14.37 68.29 14.4 73.26 C14.42 77.09 14.42 80.92 14.43 84.75 C14.43 86.58 14.44 88.41 14.45 90.24 C14.55 104.57 13.82 116.54 3.44 127.48 C-4.45 134.67 -13.64 137.97 -24.33 137.61 C-34.44 136.52 -42.82 133.41 -49.84 125.85 C-56.55 117.41 -59.2 108.33 -59.19 97.59 C-59.2 96.82 -59.2 96.05 -59.21 95.25 C-59.23 92.73 -59.23 90.21 -59.23 87.68 C-59.24 85.91 -59.25 84.14 -59.25 82.36 C-59.27 78.65 -59.27 74.94 -59.27 71.23 C-59.27 66.51 -59.3 61.79 -59.33 57.06 C-59.35 53.4 -59.36 49.74 -59.36 46.08 C-59.36 44.34 -59.37 42.6 -59.38 40.86 C-59.5 25.97 -58.07 13.19 -47.27 2.05 C-34.03 -10.3 -14.39 -10.33 0 0 Z " fill="#060606" transform="translate(607.8984375,7.2734375)"/>
<path d="M0 0 C1.25 -0.01 1.25 -0.01 2.53 -0.02 C5.25 -0.04 7.98 -0.04 10.71 -0.03 C12.62 -0.03 14.54 -0.04 16.45 -0.05 C20.45 -0.05 24.45 -0.05 28.45 -0.04 C33.56 -0.03 38.66 -0.05 43.77 -0.08 C47.71 -0.1 51.66 -0.1 55.61 -0.09 C57.49 -0.09 59.38 -0.1 61.26 -0.11 C75.03 -0.19 85.47 0.85 96.15 10.4 C104.85 19.5 106.64 28.68 106.42 40.88 C105.97 51.49 100.79 58.31 93.15 65.4 C86.08 70.88 79.29 72.7 70.46 72.69 C69.61 72.7 68.75 72.71 67.87 72.71 C65.06 72.73 62.26 72.74 59.45 72.74 C57.48 72.75 55.52 72.75 53.56 72.76 C49.45 72.77 45.33 72.78 41.22 72.77 C35.97 72.77 30.72 72.8 25.47 72.84 C21.42 72.86 17.36 72.86 13.31 72.86 C11.38 72.86 9.44 72.87 7.51 72.89 C-6.24 72.99 -17.32 72.26 -27.85 62.4 C-35.57 53.81 -38.22 44.98 -38.05 33.52 C-37.42 23.81 -33.32 16.59 -26.85 9.4 C-19.08 2.64 -10.17 -0.06 0 0 Z " fill="#030303" transform="translate(873.849365234375,358.595947265625)"/>
<path d="M0 0 C8.51 5.86 13.11 13.24 15.49 23.22 C17.19 32.54 16.17 42.88 10.71 50.9 C5.61 57.54 -0.14 63.47 -6.05 69.39 C-7.12 70.46 -8.18 71.53 -9.24 72.6 C-11.46 74.83 -13.69 77.06 -15.91 79.28 C-18.74 82.12 -21.56 84.96 -24.37 87.81 C-26.57 90.02 -28.76 92.22 -30.97 94.42 C-32.01 95.47 -33.05 96.52 -34.08 97.57 C-44.02 107.64 -53.17 114.87 -67.75 115.38 C-79.15 115.18 -87.5 111.14 -95.68 103.41 C-103 95.66 -104.67 87.1 -104.53 76.75 C-103.58 55.33 -82.82 40.58 -68.7 26.4 C-66.81 24.5 -64.92 22.6 -63.04 20.68 C-60.29 17.88 -57.51 15.1 -54.74 12.32 C-53.91 11.47 -53.08 10.62 -52.23 9.75 C-37.87 -4.56 -18.49 -11.06 0 0 Z " fill="#070707" transform="translate(845,125)"/>
<path d="M0 0 C8.31 5.12 15.05 11.83 21.91 18.7 C23.01 19.8 24.11 20.89 25.21 21.98 C27.5 24.26 29.78 26.55 32.06 28.84 C34.97 31.75 37.89 34.66 40.82 37.56 C43.08 39.81 45.34 42.07 47.6 44.33 C48.67 45.4 49.75 46.47 50.83 47.54 C60.88 57.5 68.22 66.82 68.75 81.52 C68.36 91.67 64.46 100.13 57.48 107.44 C48.6 115.64 40.21 117.98 28.26 117.73 C11.79 116.59 1.11 103.5 -9.82 92.48 C-11.82 90.46 -13.83 88.45 -15.84 86.44 C-21.45 80.81 -27.02 75.19 -32.17 69.12 C-35.21 65.66 -38.63 62.53 -42 59.39 C-49.45 52.18 -52.12 43.75 -52.94 33.59 C-52.58 22.29 -47.7 12.79 -39.66 5.07 C-28.71 -3.58 -12.81 -5.67 0 0 Z " fill="#060606" transform="translate(362.62890625,122.5390625)"/>
<path d="M0 0 C0.66 0.33 1.32 0.66 2 1 C-7.24 10.24 -16.48 19.48 -26 29 C-26 25.42 -25.48 25.07 -23.11 22.56 C-22.17 21.57 -22.17 21.57 -21.22 20.55 C-20.55 19.85 -19.88 19.16 -19.19 18.44 C-18.51 17.73 -17.84 17.01 -17.14 16.28 C-11.67 10.57 -5.98 5.17 0 0 Z " fill="#666666" transform="translate(455,238)"/>
<path d="M0 0 C0.66 0.33 1.32 0.66 2 1 C-4.6 7.6 -11.2 14.2 -18 21 C-18.66 20.67 -19.32 20.34 -20 20 C-7.23 5.85 -7.23 5.85 0 0 Z " fill="#6B6B6B" transform="translate(63,520)"/>
<path d="M0 0 C0.66 0.33 1.32 0.66 2 1 C-1.63 4.63 -5.26 8.26 -9 12 C-9 7.84 -6.75 5.85 -4 3 C-1.69 1.12 -1.69 1.12 0 0 Z " fill="#727272" transform="translate(852,364)"/>
</svg>
