<svg id="svg" xmlns="http://www.w3.org/2000/svg" xmlns:xlink="http://www.w3.org/1999/xlink" width="500" height="466.40625000000006" viewBox="0, 0, 500,466.40625000000006"><g id="svgg"><path id="path0" d="M120.703 2.499 C 48.263 45.944,1.877 125.421,0.076 209.180 L -0.079 216.406 87.591 216.406 L 175.260 216.406 175.263 213.997 C 175.287 190.488,189.530 165.908,210.747 152.757 L 212.769 151.503 211.994 150.166 C 211.567 149.430,191.907 115.346,168.304 74.424 C 144.702 33.501,125.273 0.015,125.130 0.010 C 124.987 0.005,122.995 1.125,120.703 2.499 M374.382 0.586 C 372.914 2.911,287.500 151.191,287.500 151.414 C 287.500 151.570,288.417 152.248,289.538 152.920 C 310.032 165.201,324.713 190.676,324.737 213.997 L 324.740 216.406 412.409 216.406 L 500.079 216.406 499.924 209.180 C 498.121 125.369,451.855 46.119,379.201 2.390 C 374.780 -0.271,374.895 -0.228,374.382 0.586 M246.484 166.411 C 213.377 168.793,191.601 202.325,202.977 233.407 C 219.035 277.278,281.170 277.224,297.078 233.324 C 309.357 199.438,282.430 163.825,246.484 166.411 M168.750 356.832 C 144.759 398.400,125.130 432.520,125.130 432.653 C 125.130 433.034,132.275 436.933,139.714 440.612 C 183.338 462.190,231.735 470.500,279.944 464.690 C 303.888 461.805,326.933 455.508,349.609 445.654 C 356.623 442.607,373.752 433.904,374.801 432.855 C 374.957 432.699,288.181 281.845,287.600 281.264 C 287.536 281.200,285.818 281.982,283.781 283.003 C 262.010 293.914,237.707 293.938,216.285 283.068 C 214.314 282.068,212.627 281.251,212.536 281.252 C 212.444 281.253,192.741 315.264,168.750 356.832 " stroke="none" fill="#000000" fill-rule="evenodd"></path></g></svg>