<svg xmlns="http://www.w3.org/2000/svg" width="1500" height="1500" viewBox="0 0 1500 1500" version="1.1"><path d="M 716 548.518 C 650.773 559.950, 595.662 601.358, 566.960 660.500 C 520.365 756.508, 554.827 871.298, 646.668 926.006 C 659.358 933.566, 678.140 941.828, 692.160 946.019 C 728.236 956.802, 771.764 956.802, 807.840 946.019 C 862.226 929.762, 908.230 890.623, 933.040 839.500 C 979.635 743.492, 945.173 628.702, 853.332 573.994 C 832.130 561.364, 808.544 552.775, 783.171 548.445 C 763.148 545.028, 735.742 545.058, 716 548.518 M 714.712 617.788 L 699.948 632.576 703.054 635.538 C 717.332 649.155, 732.821 675.052, 740.413 698 C 747.090 718.183, 748.465 727.062, 748.465 750 C 748.465 767.639, 748.146 771.965, 746.176 781 C 739.245 812.789, 725.445 840.284, 705.732 861.576 L 700.117 867.641 714.943 882.443 C 723.097 890.583, 730.285 897.072, 730.916 896.861 C 733.194 896.102, 748.261 878.279, 754.891 868.500 C 772.351 842.748, 781.960 820.040, 787.895 790.500 C 794.602 757.122, 792.984 723.976, 782.958 689.402 C 777.270 669.787, 767.939 650.530, 754.795 631.281 C 747.911 621.200, 732.323 603, 730.572 603 C 729.969 603, 722.831 609.655, 714.712 617.788 M 656.506 675.994 L 641.567 690.958 644.662 694.229 C 654.469 704.593, 662.365 720.950, 665.076 736.514 C 666.537 744.907, 665.736 762.160, 663.497 770.500 C 661.035 779.669, 652.690 795.820, 647.051 802.331 C 644.273 805.538, 642 808.469, 642 808.843 C 642 809.218, 648.675 816.189, 656.834 824.334 L 671.668 839.144 676.798 833.531 C 688.125 821.137, 698.762 802.024, 703.528 785.500 C 706.361 775.679, 708.961 758.688, 708.961 750 C 708.961 741.367, 706.369 724.358, 703.551 714.500 C 698.840 698.017, 685.740 674.987, 675.246 664.741 L 671.446 661.029 656.506 675.994 M 864.251 709.545 C 856.339 711.676, 851.575 714.468, 845.515 720.529 C 836.184 729.860, 832.370 739.980, 833.265 753.036 C 834.495 770.988, 846.878 785.953, 864.350 790.605 C 893.026 798.240, 920.801 773.265, 916.260 743.927 C 912.413 719.069, 888.236 703.087, 864.251 709.545 M 600.981 731.519 L 582.520 750 600.981 768.481 C 613.530 781.043, 619.673 786.549, 620.163 785.674 C 622.540 781.426, 625 763.284, 625 750 C 625 736.716, 622.540 718.574, 620.163 714.326 C 619.673 713.451, 613.530 718.957, 600.981 731.519" stroke="none" fill="#040404" fill-rule="evenodd"/><path d="M 722.500 536.543 C 682.209 541.854, 644.014 558.426, 613.976 583.628 C 567.230 622.849, 540.554 674.609, 535.930 735.062 C 531.106 798.126, 554.878 859.891, 601.157 904.540 C 622.236 924.876, 639.798 936.606, 666.933 948.472 C 717.385 970.533, 782.615 970.533, 833.067 948.472 C 860.202 936.606, 877.764 924.876, 898.843 904.540 C 945.187 859.829, 968.531 799.151, 964.011 735.153 C 960.366 683.552, 940.638 638.855, 905.170 601.842 C 869.147 564.249, 826.859 542.832, 776.038 536.441 C 762.153 534.695, 736.142 534.745, 722.500 536.543 M 736 546.032 C 644.941 552.269, 568.424 619.545, 550.077 709.500 C 542.369 747.292, 546.389 791.241, 560.734 826 C 585.165 885.199, 633.380 928.955, 693.501 946.489 C 728.734 956.764, 771.266 956.764, 806.499 946.489 C 860.357 930.782, 906.783 892.221, 931.774 842.438 C 944.586 816.914, 950.903 794.130, 953.175 765.250 C 957.742 707.172, 937.276 650.402, 896.531 608.130 C 886.610 597.837, 871.484 585.243, 860.545 578.167 C 851.618 572.393, 833.904 563.375, 823.398 559.254 C 797.306 549.022, 764.595 544.073, 736 546.032 M 715.194 617.797 L 699.888 632.500 704.047 636.500 C 713.018 645.128, 726.368 664.540, 732.931 678.500 C 737.629 688.491, 743.619 706.440, 746.218 718.310 C 748.140 727.092, 748.448 731.470, 748.448 750 C 748.448 774.421, 747.160 782.635, 740.104 803.190 C 732.052 826.649, 720.246 846.629, 705.320 862.058 L 699.943 867.615 715.567 882.484 L 731.191 897.353 736.124 891.926 C 749.443 877.274, 761.554 859.799, 769.919 843.161 C 805.250 772.892, 797.075 685.758, 749.345 623.875 C 743.227 615.942, 731.818 602.996, 731 603.057 C 730.725 603.077, 723.612 609.710, 715.194 617.797 M 656.576 675.875 L 641.652 690.873 645.133 694.725 C 652.926 703.351, 659.640 715.616, 663.622 728.500 C 666.533 737.917, 666.246 761.895, 663.102 772 C 659.794 782.633, 653.709 794.229, 647.231 802.247 L 641.663 809.138 656.582 824.130 L 671.500 839.123 676.700 833.454 C 691.949 816.833, 703.334 792.994, 707.206 769.577 C 708.710 760.479, 708.710 739.521, 707.206 730.423 C 703.334 707.006, 691.949 683.167, 676.700 666.546 L 671.500 660.877 656.576 675.875 M 866.045 709.034 C 855.530 711.233, 842.720 720.748, 838.111 729.783 C 829.340 746.975, 832.187 766.318, 845.440 779.571 C 861.702 795.833, 887.799 795.910, 903.974 779.743 C 917.116 766.608, 920.344 747.742, 912.301 731.076 C 906.452 718.958, 891.160 708.947, 877.655 708.395 C 873.720 708.234, 868.495 708.522, 866.045 709.034 M 600.960 731.540 L 582.513 750.007 601.167 768.660 L 619.820 787.313 620.926 783.406 C 625.642 766.759, 626.248 737.745, 622.216 721.712 C 621.138 717.428, 620.066 713.732, 619.832 713.498 C 619.598 713.265, 611.106 721.383, 600.960 731.540" stroke="none" fill="#3354c4" fill-rule="evenodd"/></svg>