<?xml version="1.0" encoding="UTF-8" standalone="no" ?>
<!DOCTYPE svg PUBLIC "-//W3C//DTD SVG 1.1//EN" "http://www.w3.org/Graphics/SVG/1.1/DTD/svg11.dtd">
<svg xmlns="http://www.w3.org/2000/svg" xmlns:xlink="http://www.w3.org/1999/xlink" version="1.1" width="1080" height="1080" viewBox="0 0 1080 1080" xml:space="preserve">
<desc>Created with Fabric.js 5.2.4</desc>
<defs>
</defs>
<g transform="matrix(1 0 0 1 540 540)" id="bafba5be-a431-4fae-bf1c-1a8022adc79f"  >
<rect style="stroke: none; stroke-width: 1; stroke-dasharray: none; stroke-linecap: butt; stroke-dashoffset: 0; stroke-linejoin: miter; stroke-miterlimit: 4; fill: rgb(255,255,255); fill-rule: nonzero; opacity: 1; visibility: hidden;" vector-effect="non-scaling-stroke"  x="-540" y="-540" rx="0" ry="0" width="1080" height="1080" />
</g>
<g transform="matrix(1 0 0 1 540 540)" id="7d5e59c2-174a-4ff2-a62b-002d5cf534df"  >
</g>
<g transform="matrix(1 0 0 1 540 540)"  >
<rect style="stroke: none; stroke-width: 1; stroke-dasharray: none; stroke-linecap: butt; stroke-dashoffset: 0; stroke-linejoin: miter; stroke-miterlimit: 4; fill: rgb(255,255,255); fill-rule: nonzero; opacity: 1; visibility: hidden;" vector-effect="non-scaling-stroke"  x="-540" y="-540" rx="0" ry="0" width="1080" height="1080" />
</g>
<g transform="matrix(1 0 0 1 50 50)"  >
<rect style="stroke: none; stroke-width: 1; stroke-dasharray: none; stroke-linecap: butt; stroke-dashoffset: 0; stroke-linejoin: miter; stroke-miterlimit: 4; fill: rgb(255,255,255); fill-opacity: 0; fill-rule: nonzero; opacity: 1;" vector-effect="non-scaling-stroke"  x="-50" y="-50" rx="0" ry="0" width="100" height="100" />
</g>
<g transform="matrix(1 0 0 1 540 540)"  >
<rect style="stroke: none; stroke-width: 1; stroke-dasharray: none; stroke-linecap: butt; stroke-dashoffset: 0; stroke-linejoin: miter; stroke-miterlimit: 4; fill: rgb(49,84,199); fill-rule: nonzero; opacity: 1; visibility: hidden;" vector-effect="non-scaling-stroke"  x="-540" y="-540" rx="0" ry="0" width="1080" height="1080" />
</g>
<g transform="matrix(10.7 0 0 10.63 529.32 527.54)"  >
<path style="stroke: rgb(0,0,0); stroke-width: 9; stroke-dasharray: none; stroke-linecap: butt; stroke-dashoffset: 0; stroke-linejoin: miter; stroke-miterlimit: 4; fill: rgb(49,84,199); fill-rule: nonzero; opacity: 1;" vector-effect="non-scaling-stroke"  transform=" translate(-50, -50)" d="M 50 92.875 C 26.358 92.875 7.125 73.642 7.125 50 C 7.125 26.358000000000004 26.358 7.125 50 7.125 C 73.642 7.125 92.875 26.358 92.875 50 C 92.875 73.642 73.642 92.875 50 92.875 z M 50 9.125 C 27.461 9.125 9.125 27.461 9.125 50 C 9.125 72.538 27.461 90.875 50 90.875 C 72.538 90.875 90.875 72.538 90.875 50 C 90.875 27.461 72.538 9.125 50 9.125 z" stroke-linecap="round" />
</g>
<g transform="matrix(37.28 0 0 38.76 551 551)"  >
<path style="stroke: rgb(0,0,0); stroke-width: 22; stroke-dasharray: none; stroke-linecap: butt; stroke-dashoffset: 0; stroke-linejoin: miter; stroke-miterlimit: 4; fill: rgb(49,84,199); fill-rule: nonzero; opacity: 1;" vector-effect="non-scaling-stroke"  transform=" translate(-12, -12)" d="M 10 12 C 10.0026 12.7882 9.84833 13.569 9.54617 14.2969 C 9.244 15.0248 8.79999 15.6854 8.24 16.24 L 6.82 14.82 C 7.57118 14.0733 7.99553 13.0591 8 12 C 8.00041 11.4746 7.8973 10.9542 7.69655 10.4686 C 7.49579 9.98301 7.20134 9.54174 6.83 9.16999 L 8.24 7.75999 C 8.79999 8.31462 9.244 8.97515 9.54617 9.70309 C 9.84833 10.431 10.0026 11.2118 10 12 Z M 11.07 4.92999 L 9.65 6.34999 C 11.1461 7.84972 11.9863 9.88162 11.9863 12 C 11.9863 14.1184 11.1461 16.1503 9.65 17.65 L 11.07 19.07 C 12.9447 17.1947 13.9979 14.6516 13.9979 12 C 13.9979 9.34835 12.9447 6.80527 11.07 4.92999 Z M 16 12 C 16 12.3956 16.1173 12.7822 16.3371 13.1111 C 16.5568 13.44 16.8692 13.6964 17.2346 13.8478 C 17.6001 13.9991 18.0022 14.0387 18.3902 13.9616 C 18.7781 13.8844 19.1345 13.6939 19.4142 13.4142 C 19.6939 13.1345 19.8844 12.7781 19.9616 12.3902 C 20.0387 12.0022 19.9991 11.6001 19.8478 11.2346 C 19.6964 10.8692 19.44 10.5568 19.1111 10.3371 C 18.7822 10.1173 18.3956 9.99999 18 9.99999 C 17.4696 9.99999 16.9609 10.2107 16.5858 10.5858 C 16.2107 10.9609 16 11.4696 16 12 Z M 4 12 L 5.74 13.74 C 6.08379 12.6055 6.08379 11.3945 5.74 10.26 L 4 12 Z" stroke-linecap="round" />
</g>
</svg>