<?xml version="1.0" encoding="UTF-8"?>
<svg xmlns="http://www.w3.org/2000/svg" viewBox="0 0 273.2 284.54">
  <defs>
    <style>
      .cls-1 {
        fill: #c2c2c2;
      }

      .cls-1, .cls-2, .cls-3, .cls-4, .cls-5, .cls-6, .cls-7 {
        stroke-width: 0px;
      }

      .cls-2 {
        fill: #00a0ff;
      }

      .cls-3 {
        fill: #fef103;
      }

      .cls-4 {
        fill: #666;
      }

      .cls-5 {
        fill: #000d29;
      }

      .cls-6 {
        fill: #727272;
      }

      .cls-7 {
        fill: #6b6b6b;
      }
    </style>
  </defs>
  <g id="Livello_1" data-name="Livello 1">
    <path class="cls-5" d="M136.59,6.78c71.69,0,129.81,58.12,129.81,129.81v11.81c0,71.69-58.12,129.81-129.81,129.81-71.69,0-129.81-58.12-129.81-129.81v-11.79C6.76,64.91,64.87,6.78,136.56,6.77c0,0,.01,0,.02,0h.01Z"/>
    <path class="cls-2" d="M153.02.98c3.72.45,6.38,3.83,5.93,7.55-.45,3.72-3.83,6.38-7.55,5.93-4.91-.59-9.86-.89-14.81-.9-3.74,0-6.78-3.03-6.78-6.78C129.81,3.04,132.84,0,136.59,0h0C142.11,0,147.58.33,153.02.98ZM192.64,12c3.41,1.54,4.93,5.56,3.39,8.97-1.54,3.41-5.56,4.93-8.97,3.39-4.5-2.03-9.13-3.78-13.85-5.25-3.58-1.11-5.58-4.92-4.46-8.5,1.11-3.58,4.92-5.58,8.5-4.46,5.25,1.65,10.38,3.6,15.39,5.85ZM227.9,35.01c2.7,2.59,2.8,6.88.21,9.59-2.47,2.58-6.53,2.8-9.27.49-3.68-3.3-7.55-6.38-11.59-9.23-3.07-2.15-3.8-6.38-1.65-9.45,2.15-3.07,6.38-3.8,9.45-1.65h0c4.5,3.15,8.79,6.57,12.87,10.25h-.02ZM253.82,66.44c1.93,3.21.88,7.38-2.33,9.31-3.21,1.93-7.38.88-9.31-2.33h0c-2.54-4.24-5.34-8.32-8.37-12.22-2.3-2.96-1.76-7.23,1.2-9.53,2.96-2.3,7.23-1.76,9.53,1.2h0c3.36,4.35,6.45,8.87,9.29,13.57h0ZM269.72,105.84c.84,3.65-1.44,7.3-5.09,8.14s-7.3-1.44-8.14-5.09c-1.11-4.82-2.51-9.56-4.2-14.2-1.28-3.52.55-7.42,4.07-8.69s7.42.55,8.69,4.07c1.88,5.14,3.43,10.42,4.65,15.78h.01ZM273.2,145.04c0,3.75-3.04,6.79-6.79,6.79-3.75,0-6.79-3.04-6.79-6.79h0v-8.56c0-2.28-.06-4.56-.19-6.82-.21-3.74,2.66-6.94,6.4-7.15s6.94,2.66,7.15,6.4h0c.15,2.51.23,5.03.23,7.57v8.56ZM268.08,185.55c-1.02,3.61-4.77,5.71-8.38,4.69s-5.71-4.77-4.69-8.38c1.35-4.74,2.4-9.57,3.15-14.48.58-3.7,4.04-6.24,7.75-5.66s6.24,4.04,5.66,7.75c-.84,5.44-2.01,10.8-3.5,16.08ZM250.83,223.31c-2.05,3.13-6.26,4-9.39,1.95s-4-6.26-1.95-9.39h0c2.72-4.14,5.18-8.43,7.38-12.86,1.67-3.36,5.73-4.73,9.09-3.06,3.36,1.67,4.73,5.73,3.06,9.09h0c-2.44,4.92-5.18,9.68-8.19,14.27h0ZM223.44,253.85c-2.89,2.39-7.17,1.98-9.55-.92-2.39-2.89-1.98-7.17.91-9.55h0c3.83-3.15,7.44-6.52,10.86-10.09,2.55-2.74,6.84-2.89,9.58-.34s2.89,6.84.34,9.58c-.04.04-.08.08-.12.12-3.78,3.97-7.8,7.71-12.03,11.2ZM187.24,275.3c-3.48,1.39-7.43-.3-8.82-3.78s.3-7.43,3.78-8.82h0c4.59-1.83,9.06-3.94,13.4-6.3,3.28-1.8,7.41-.6,9.21,2.69,1.8,3.28.6,7.41-2.68,9.21h0c-4.81,2.63-9.78,4.98-14.88,7.01ZM148.16,284.52c-3.74.31-7.02-2.46-7.34-6.19-.31-3.74,2.46-7.02,6.2-7.34,4.95-.4,9.84-1.13,14.67-2.11,3.67-.76,7.26,1.6,8.02,5.27.76,3.67-1.6,7.26-5.27,8.02-5.35,1.11-10.8,1.89-16.28,2.35h0ZM106.82,281.75c-3.66-.81-5.96-4.43-5.15-8.09.81-3.66,4.43-5.96,8.09-5.15,4.8,1.06,9.69,1.85,14.63,2.32,3.73.36,6.45,3.68,6.09,7.41-.36,3.73-3.68,6.45-7.41,6.09h0c-5.46-.53-10.89-1.39-16.24-2.58ZM68.29,266.72c-3.25-1.88-4.36-6.03-2.48-9.28,1.88-3.25,6.03-4.36,9.28-2.48,4.28,2.47,8.7,4.69,13.24,6.63,3.45,1.47,5.06,5.46,3.58,8.91-1.47,3.45-5.46,5.06-8.91,3.59h0c-5.05-2.16-9.96-4.62-14.72-7.37h0ZM36.2,241.02c-2.54-2.75-2.36-7.05.39-9.58,2.75-2.54,7.05-2.36,9.59.39,3.36,3.63,6.93,7.05,10.69,10.26,2.86,2.43,3.2,6.72.77,9.58s-6.72,3.2-9.58.77c-4.17-3.56-8.13-7.37-11.85-11.4l-.02-.02ZM12.8,206.22c-1.59-3.4-.12-7.44,3.28-9.02,3.4-1.59,7.44-.12,9.02,3.28,2.1,4.47,4.47,8.82,7.08,13,1.99,3.18,1.02,7.36-2.15,9.35-3.18,1.99-7.36,1.02-9.35-2.15-2.91-4.66-5.53-9.49-7.86-14.46h-.02ZM1.34,167.58c-.52-3.71,2.06-7.14,5.78-7.67,3.71-.52,7.14,2.06,7.66,5.78.69,4.9,1.66,9.75,2.94,14.5.97,3.62-1.18,7.34-4.8,8.31-3.62.97-7.34-1.18-8.31-4.8h0c-1.41-5.3-2.51-10.69-3.27-16.12ZM.36,126.57c.27-3.74,3.52-6.54,7.26-6.27,3.74.27,6.54,3.52,6.27,7.26h0c-.21,3-.33,6-.33,9.03v6.11c0,3.74-3.03,6.78-6.78,6.78-3.74,0-6.78-3.03-6.78-6.78h0v-6.11c0-3.36.12-6.69.36-10.02ZM9.45,86.52c1.38-3.49,5.32-5.2,8.81-3.82,3.49,1.38,5.2,5.32,3.82,8.81h0c-1.8,4.59-3.33,9.3-4.57,14.1-.94,3.63-4.65,5.8-8.28,4.86-3.63-.94-5.8-4.65-4.86-8.28h0c1.38-5.31,3.08-10.54,5.1-15.65h-.02ZM30.63,50.37c2.37-2.9,6.64-3.34,9.55-.97s3.34,6.64.97,9.55h0c-3.12,3.82-6,7.85-8.66,12.03-1.95,3.2-6.12,4.21-9.32,2.26-3.2-1.95-4.21-6.12-2.26-9.32.04-.06.08-.13.12-.19,2.93-4.65,6.14-9.1,9.6-13.35v-.02ZM60.87,22.89c3.11-2.08,7.33-1.24,9.4,1.88,2.08,3.11,1.24,7.33-1.87,9.4-4.12,2.75-8.06,5.74-11.82,8.96-2.85,2.44-7.13,2.1-9.56-.74s-2.1-7.13.74-9.56h0c4.16-3.57,8.55-6.9,13.11-9.93ZM99.32,5.16c3.6-1.02,7.35,1.08,8.37,4.68,1.02,3.6-1.08,7.35-4.68,8.37-4.76,1.35-9.44,2.98-13.98,4.89-3.45,1.45-7.43-.18-8.88-3.63-1.45-3.45.18-7.43,3.63-8.88,5.07-2.12,10.25-3.94,15.54-5.43ZM136.34,0c3.75,0,6.79,3.02,6.8,6.77,0,3.75-3.02,6.79-6.77,6.8-4.21,0-8.41.23-12.6.66-3.73.39-7.07-2.32-7.46-6.04-.39-3.73,2.32-7.07,6.05-7.46C126.99.26,131.66.02,136.34,0Z"/>
  </g>
  <g id="Livello_4" data-name="Livello 4">
    <path class="cls-1" d="M192.21,101.06c.17.16.34.32.52.49,7.04,6.8,11.32,17.01,11.52,26.75,0,.53,0,1.07,0,1.6v.43c-.02,11.17-4.59,21.28-12.45,29.14.22.12.43.24.65.37,2.88,1.64,5.36,3.54,7.75,5.83.11.11.22.21.34.33.82.8,1.55,1.64,2.24,2.56.1.14.2.27.31.42,1.04,1.43,1.91,2.93,2.71,4.5.11.22.22.43.34.65,1.31,2.71,2.19,5.58,2.66,8.55.04.23.07.46.11.69.42,3.51.35,7.47-.51,10.91q-.06.25-.12.5c-2.02,8.05-6.93,14.99-14.04,19.37-5.83,3.48-12.02,4.63-18.74,4.6-.41,0-.82,0-1.23,0-1.12,0-2.23,0-3.35,0-1.21,0-2.42,0-3.63,0-2.23,0-4.45,0-6.68,0-2.06,0-4.12,0-6.17,0h-.42c-.56,0-1.11,0-1.67,0-5.21,0-10.42,0-15.63,0-4.62,0-9.24,0-13.85,0-5.2,0-10.4,0-15.6,0h-2.08c-2.06,0-4.11,0-6.17,0-2.34,0-4.68,0-7.02,0-1.19,0-2.38,0-3.58,0-11.32.02-21.82-1.36-30.42-9.48-.27-.23-.53-.45-.8-.68-5.51-4.85-9.13-12.17-10.4-19.32-.04-.2-.07-.41-.11-.62-.32-1.96-.37-3.88-.37-5.86,0-.17,0-.33,0-.5.01-4.19.62-8.08,2.07-12.02.05-.14.1-.29.16-.43,1.34-3.6,3.23-6.79,5.64-9.77.1-.12.2-.25.3-.38,2.94-3.63,6.56-6.63,10.7-8.82h.4c0-.19,0-.38.02-.58.48-12.97,7.02-25.07,16.38-33.82.71-.63,1.45-1.22,2.2-1.8q.29-.23.58-.47c10.06-8.01,23.27-11.63,36.02-10.34,3.31.38,6.61,1.07,9.8,2.01.13-.16.27-.32.4-.48,7.52-8.98,17.1-14.9,28.96-15.99,12.18-.93,23.43,3.35,32.24,11.68Z"/>
    <path class="cls-2" d="M192.21,101.06c.17.16.34.32.52.49,7.04,6.8,11.32,17.01,11.52,26.75,0,.53,0,1.07,0,1.6v.43c-.02,11.17-4.59,21.28-12.45,29.14.22.12.43.24.65.37,2.88,1.64,5.36,3.54,7.75,5.83.11.11.22.21.34.33.82.8,1.55,1.64,2.24,2.56.1.14.2.27.31.42,1.04,1.43,1.91,2.93,2.71,4.5.11.22.22.43.34.65,1.31,2.71,2.19,5.58,2.66,8.55.04.23.07.46.11.69.42,3.51.35,7.47-.51,10.91q-.06.25-.12.5c-2.02,8.05-6.93,14.99-14.04,19.37-5.83,3.48-12.02,4.63-18.74,4.6-.41,0-.82,0-1.23,0-1.12,0-2.23,0-3.35,0-1.21,0-2.42,0-3.63,0-2.23,0-4.45,0-6.68,0-2.06,0-4.12,0-6.17,0h-.42c-.56,0-1.11,0-1.67,0-5.21,0-10.42,0-15.63,0-4.62,0-9.24,0-13.85,0-5.2,0-10.4,0-15.6,0h-2.08c-2.06,0-4.11,0-6.17,0-2.34,0-4.68,0-7.02,0-1.19,0-2.38,0-3.58,0-11.32.02-21.82-1.36-30.42-9.48-.27-.23-.53-.45-.8-.68-5.51-4.85-9.13-12.17-10.4-19.32-.04-.2-.07-.41-.11-.62-.32-1.96-.37-3.88-.37-5.86,0-.17,0-.33,0-.5.01-4.19.62-8.08,2.07-12.02.05-.14.1-.29.16-.43,1.34-3.6,3.23-6.79,5.64-9.77.1-.12.2-.25.3-.38,2.94-3.63,6.56-6.63,10.7-8.82h.4c0-.19,0-.38.02-.58.48-12.97,7.02-25.07,16.38-33.82.71-.63,1.45-1.22,2.2-1.8q.29-.23.58-.47c10.06-8.01,23.27-11.63,36.02-10.34,3.31.38,6.61,1.07,9.8,2.01.13-.16.27-.32.4-.48,7.52-8.98,17.1-14.9,28.96-15.99,12.18-.93,23.43,3.35,32.24,11.68ZM90.41,128.66c-.16.16-.32.32-.49.49-2.43,2.43-4.28,5.09-5.91,8.11-.07.12-.13.24-.2.37-2.56,4.68-3.57,9.76-4,15.03q-.02.2-.04.41c-.19,2.26-.18,4.52-.16,6.79-.15.04-.31.09-.47.13-1,.37-1.93.86-2.87,1.36-.2.11-.4.21-.61.32q-4.04,2.07-7.65,4.79c-.1.09-.2.18-.3.27-3.72,3.41-6.66,8.4-6.93,13.55q-.12,4.14.63,8.18c.04.13.08.25.12.38.97,3.06,2.51,5.85,4.68,8.22q.13.15.26.29c3.79,4.17,9.16,6.65,14.79,6.93,1.2.04,2.41.03,3.61.03.41,0,.81,0,1.21,0,1.11,0,2.21,0,3.32,0,1.2,0,2.39,0,3.58,0,2.2,0,4.41,0,6.61,0h8.16c5.15,0,10.29,0,15.44,0,4.57,0,9.13,0,13.7,0,5.14,0,10.27,0,15.41,0h2.05c2.03,0,4.07,0,6.1,0,2.31,0,4.63,0,6.94,0,1.18,0,2.36,0,3.54,0,1.08,0,2.16,0,3.24,0h1.17c5.7.01,10.45-1.18,14.7-5.23,3.37-3.49,4.69-8.02,4.62-12.77-.16-4.43-2.42-8.48-5.6-11.48-2.42-2.18-5.39-3.27-8.37-4.49-.63-.26-1.25-.52-1.87-.79-.18-.08-.35-.15-.53-.23-.32-.14-.64-.28-.96-.42-.61-.26-1.06-.45-1.72-.45,0-.13,0-.26,0-.4,0-1.38.02-2.76.02-4.14,0-.51,0-1.03,0-1.54.05-7.47-1.2-13.35-6.43-18.93-.11-.12-.21-.24-.32-.37-2.69-2.94-6.69-4.55-10.48-5.43-.15-.04-.29-.07-.45-.11-1.53-.35-3.07-.37-4.64-.4-.8-.02-1.59-.04-2.39-.07-.45-.01-.9-.02-1.36-.02-.78-.02-1.34-.04-1.98-.51-.38-.41-.71-.84-1.04-1.29-.12-.16-.24-.31-.36-.47-.34-.44-.66-.88-.99-1.33-.24-.31-.48-.63-.72-.94-.1-.13-.2-.26-.31-.4-2.14-2.69-4.42-4.99-7.17-7.06-.2-.15-.39-.3-.6-.46-4.5-3.28-9.74-5.23-15.2-6.14-.26-.04-.52-.09-.78-.14-10.84-1.61-22.48,2.4-30.02,10.34Z"/>
    <path class="cls-3" d="M163.19,103.81h.42c2.13,0,4.14.11,6.2.65.13.03.26.06.39.1,6.73,1.74,12.46,6.17,16.01,12.1,1.33,2.29,2.35,4.55,2.94,7.14.04.18.09.36.13.54.79,3.39.97,7.32.13,10.72-.03.15-.07.3-.11.45-.66,2.68-1.63,5.1-2.89,7.55h-.4c-.06-.14-.13-.28-.19-.42-1.61-3.37-3.87-6.26-6.41-8.98-.13-.14-.26-.29-.39-.43-5.21-5.51-13.84-9.72-21.44-9.98-.13,0-.26,0-.4,0q-1.72,0-2.53-.63c-.52-.56-.98-1.14-1.44-1.76-.22-.27-.45-.53-.67-.79q-.16-.19-.33-.38c-2.04-2.24-4.31-4.13-6.73-5.96-.52-.4-1.02-.79-1.47-1.27,5.13-5.41,11.66-8.64,19.18-8.65Z"/>
    <path class="cls-2" d="M167.99,52.51c1.46,1.2,2.45,2.68,2.82,4.55.02.53.03,1.07.03,1.6,0,.16,0,.32,0,.49,0,.53,0,1.06,0,1.59,0,.37,0,.74,0,1.11,0,.78,0,1.56,0,2.33,0,.99,0,1.98.01,2.98,0,.77,0,1.53,0,2.3,0,.37,0,.73,0,1.1.02,2.87-.13,5.26-2.2,7.45-1.58,1.44-3.42,2.1-5.55,2.03-2.02-.22-3.7-.84-5.1-2.35-1.34-1.69-1.87-3.5-1.87-5.65,0-.15,0-.31,0-.47,0-.5,0-1.01,0-1.51,0-.35,0-.71,0-1.06,0-.74,0-1.48,0-2.23,0-.94,0-1.89-.01-2.83,0-.73,0-1.46,0-2.2,0-.35,0-.7,0-1.04-.02-2.98.26-5.53,2.42-7.76,2.65-2.47,6.58-2.48,9.45-.41Z"/>
    <path class="cls-2" d="M221.18,122.78q.25,0,.51,0c.54,0,1.09,0,1.64,0,.38,0,.77,0,1.15,0,.8,0,1.6,0,2.4,0,1.02,0,2.04,0,3.06,0,.79,0,1.58,0,2.37,0,.38,0,.75,0,1.13,0,2.75-.02,4.84.19,6.98,2.1,1.74,1.82,2.1,3.66,2.05,6.1-.09,2.12-1.13,3.49-2.65,4.9-1.41,1.1-2.77,1.46-4.54,1.46-.17,0-.34,0-.52,0-.56,0-1.12,0-1.68,0-.39,0-.79,0-1.18,0-.82,0-1.65,0-2.47,0-1.05,0-2.1,0-3.15.01-.81,0-1.62,0-2.43,0-.39,0-.77,0-1.16,0-2.75.02-4.97-.13-7.07-2.1-1.54-1.72-2.07-3.48-2.04-5.78.13-1.94.95-3.39,2.24-4.82,1.55-1.35,3.34-1.89,5.37-1.88Z"/>
    <path class="cls-2" d="M215.41,76.06c1.7,1.17,2.62,2.65,3.1,4.64.34,1.86.14,3.93-.96,5.54-1.02,1.33-2.17,2.51-3.35,3.7-.21.21-.43.43-.64.64-.44.45-.89.89-1.33,1.34-.57.57-1.13,1.14-1.69,1.71-.44.44-.88.88-1.32,1.32-.21.21-.42.42-.62.63-1.99,2.01-3.82,3.46-6.73,3.56-2.28-.04-3.95-.85-5.59-2.39-1.46-1.55-1.8-3.26-1.77-5.33.19-4.28,4.34-7.23,7.17-10.07.38-.38.76-.76,1.13-1.14.55-.56,1.11-1.12,1.66-1.67.17-.17.33-.34.5-.51,2.87-2.86,6.75-4.16,10.45-1.95Z"/>
    <path class="cls-2" d="M118.94,75.57c1.66,1.02,3.01,2.37,4.38,3.74.22.22.44.44.66.66.46.46.91.91,1.37,1.37.58.58,1.17,1.16,1.75,1.74.45.45.9.9,1.36,1.35.21.21.43.43.65.64,2.01,1.99,3.48,3.86,3.58,6.8-.08,2.03-.86,3.72-2.25,5.18-1.78,1.64-3.45,2.11-5.84,2.06-3.29-.23-5.43-2.85-7.62-5.05-.4-.4-.8-.81-1.2-1.21-1.12-1.13-2.24-2.25-3.27-3.46-.61-.69-1.29-1.32-1.97-1.95-1.49-1.44-2.02-3.13-2.19-5.16.07-2.26,1.05-4.16,2.66-5.7,2.19-1.73,5.37-2.15,7.93-1.01Z"/>
    <path class="cls-4" d="M137.41,98.66l.4.2c-1.85,1.85-3.7,3.7-5.6,5.6,0-.72.1-.79.58-1.29q.19-.2.38-.4c.13-.14.27-.28.41-.42.14-.14.27-.29.41-.43,1.09-1.14,2.23-2.22,3.43-3.26Z"/>
    <path class="cls-7" d="M59.01,155.06l.4.2-4,4-.4-.2q2.55-2.83,4-4Z"/>
    <path class="cls-6" d="M216.81,123.86l.4.2c-.73.73-1.45,1.45-2.2,2.2,0-.83.45-1.23,1-1.8q.46-.38.8-.6Z"/>
  </g>
</svg>